<svg width="180" height="42" viewBox="0 0 180 42" fill="none" xmlns="http://www.w3.org/2000/svg">
    <path d="M0 8.94244H40V38.4068H0V8.94244Z" fill="black" />
    <path d="M3.07692 36.9695H6.15385V42H3.07692V36.9695Z" fill="black" />
    <path d="M33.8462 36.9695H36.9231V42H33.8462V36.9695Z" fill="black" />
    <path d="M3 31H37V34H3V31Z" fill="black" />
    <path d="M19.2666 10.4132L29.3425 1M20.7334 10.4132L10.6575 1" stroke="black" stroke-width="2" />
    <rect x="3" y="12" width="34" height="20" fill="#F5F5F5" />
    <rect x="35" y="34" width="2" height="2" fill="#FF5C00" />
    <rect x="31" y="34" width="2" height="2" fill="#FFEA31" />
    <path d="M59.128 37.288C57.6347 37.288 56.3867 36.968 55.384 36.328C54.4027 35.688 53.656 34.8027 53.144 33.672C52.632 32.5413 52.3333 31.2293 52.248 29.736L55.448 28.872C55.512 29.7893 55.6507 30.6747 55.864 31.528C56.0987 32.3813 56.472 33.0853 56.984 33.64C57.496 34.1733 58.2107 34.44 59.128 34.44C60.0667 34.44 60.7707 34.184 61.24 33.672C61.7307 33.1387 61.976 32.3813 61.976 31.4C61.976 30.2267 61.7093 29.288 61.176 28.584C60.6427 27.8587 59.9707 27.1333 59.16 26.408L54.808 22.568C53.9547 21.8213 53.3253 21.0107 52.92 20.136C52.5147 19.24 52.312 18.1413 52.312 16.84C52.312 14.9413 52.856 13.4693 53.944 12.424C55.032 11.3787 56.5147 10.856 58.392 10.856C59.416 10.856 60.312 10.9947 61.08 11.272C61.8693 11.528 62.52 11.9333 63.032 12.488C63.5653 13.0427 63.9813 13.7467 64.28 14.6C64.6 15.432 64.8133 16.4133 64.92 17.544L61.848 18.376C61.784 17.5227 61.656 16.744 61.464 16.04C61.272 15.3147 60.9307 14.7387 60.44 14.312C59.9707 13.864 59.288 13.64 58.392 13.64C57.496 13.64 56.792 13.8853 56.28 14.376C55.7893 14.8453 55.544 15.5493 55.544 16.488C55.544 17.2773 55.672 17.928 55.928 18.44C56.2053 18.952 56.6427 19.4747 57.24 20.008L61.624 23.848C62.6053 24.7013 63.4693 25.7253 64.216 26.92C64.9627 28.0933 65.336 29.4907 65.336 31.112C65.336 32.392 65.0693 33.5013 64.536 34.44C64.0027 35.3573 63.2667 36.0613 62.328 36.552C61.4107 37.0427 60.344 37.288 59.128 37.288ZM67.949 37V11.08H71.373V20.424C71.9917 19.8267 72.685 19.3147 73.453 18.888C74.221 18.4613 75.0743 18.248 76.013 18.248C76.7383 18.248 77.293 18.44 77.677 18.824C78.0823 19.208 78.3597 19.688 78.509 20.264C78.6797 20.84 78.765 21.4267 78.765 22.024V37H75.341V23.016C75.341 22.3547 75.245 21.8427 75.053 21.48C74.861 21.1173 74.4663 20.936 73.869 20.936C73.4637 20.936 73.037 21.0533 72.589 21.288C72.1623 21.5227 71.757 21.8107 71.373 22.152V37H67.949ZM87.191 37.256C85.8257 37.256 84.7483 36.9787 83.959 36.424C83.1697 35.8693 82.6043 35.08 82.263 34.056C81.943 33.032 81.783 31.8267 81.783 30.44V25.064C81.783 23.6773 81.943 22.472 82.263 21.448C82.6043 20.424 83.1697 19.6347 83.959 19.08C84.7483 18.5253 85.8257 18.248 87.191 18.248C88.5563 18.248 89.623 18.5253 90.391 19.08C91.1803 19.6347 91.735 20.424 92.055 21.448C92.3963 22.472 92.567 23.6773 92.567 25.064V30.44C92.567 31.8267 92.3963 33.032 92.055 34.056C91.735 35.08 91.1803 35.8693 90.391 36.424C89.623 36.9787 88.5563 37.256 87.191 37.256ZM87.191 34.728C87.8523 34.728 88.311 34.536 88.567 34.152C88.8443 33.768 89.0043 33.2667 89.047 32.648C89.111 32.008 89.143 31.3467 89.143 30.664V24.872C89.143 24.168 89.111 23.5067 89.047 22.888C89.0043 22.2693 88.8443 21.768 88.567 21.384C88.311 20.9787 87.8523 20.776 87.191 20.776C86.5297 20.776 86.0603 20.9787 85.783 21.384C85.5057 21.768 85.335 22.2693 85.271 22.888C85.2283 23.5067 85.207 24.168 85.207 24.872V30.664C85.207 31.3467 85.2283 32.008 85.271 32.648C85.335 33.2667 85.5057 33.768 85.783 34.152C86.0603 34.536 86.5297 34.728 87.191 34.728ZM97.5908 37L94.6148 18.504H97.4308L99.3508 32.136L101.815 18.504H104.439L106.903 32.072L108.823 18.504H111.639L108.567 37H105.687L103.159 23.944L100.663 37H97.5908ZM127.972 37.288C126.478 37.288 125.23 36.968 124.228 36.328C123.246 35.688 122.5 34.8027 121.988 33.672C121.476 32.5413 121.177 31.2293 121.092 29.736L124.292 28.872C124.356 29.7893 124.494 30.6747 124.708 31.528C124.942 32.3813 125.316 33.0853 125.828 33.64C126.34 34.1733 127.054 34.44 127.972 34.44C128.91 34.44 129.614 34.184 130.084 33.672C130.574 33.1387 130.82 32.3813 130.82 31.4C130.82 30.2267 130.553 29.288 130.02 28.584C129.486 27.8587 128.814 27.1333 128.004 26.408L123.652 22.568C122.798 21.8213 122.169 21.0107 121.764 20.136C121.358 19.24 121.156 18.1413 121.156 16.84C121.156 14.9413 121.7 13.4693 122.788 12.424C123.876 11.3787 125.358 10.856 127.236 10.856C128.26 10.856 129.156 10.9947 129.924 11.272C130.713 11.528 131.364 11.9333 131.876 12.488C132.409 13.0427 132.825 13.7467 133.124 14.6C133.444 15.432 133.657 16.4133 133.764 17.544L130.692 18.376C130.628 17.5227 130.5 16.744 130.308 16.04C130.116 15.3147 129.774 14.7387 129.284 14.312C128.814 13.864 128.132 13.64 127.236 13.64C126.34 13.64 125.636 13.8853 125.124 14.376C124.633 14.8453 124.388 15.5493 124.388 16.488C124.388 17.2773 124.516 17.928 124.772 18.44C125.049 18.952 125.486 19.4747 126.084 20.008L130.468 23.848C131.449 24.7013 132.313 25.7253 133.06 26.92C133.806 28.0933 134.18 29.4907 134.18 31.112C134.18 32.392 133.913 33.5013 133.38 34.44C132.846 35.3573 132.11 36.0613 131.172 36.552C130.254 37.0427 129.188 37.288 127.972 37.288ZM141.625 37.256C140.665 37.256 139.886 37.0747 139.289 36.712C138.713 36.3493 138.286 35.8373 138.009 35.176C137.753 34.5147 137.625 33.736 137.625 32.84V20.776H135.673V18.504H137.625V13.096H141.049V18.504H144.025V20.776H141.049V32.616C141.049 33.3413 141.166 33.864 141.401 34.184C141.635 34.4827 142.083 34.632 142.745 34.632C142.915 34.632 143.107 34.6213 143.321 34.6C143.555 34.5787 143.779 34.5573 143.993 34.536V37.064C143.566 37.128 143.171 37.1707 142.809 37.192C142.446 37.2347 142.051 37.256 141.625 37.256ZM149.869 37.256C149.143 37.256 148.503 37.0533 147.949 36.648C147.394 36.2213 146.957 35.688 146.637 35.048C146.317 34.3867 146.157 33.6933 146.157 32.968C146.157 31.816 146.349 30.8453 146.733 30.056C147.117 29.2667 147.639 28.6053 148.301 28.072C148.983 27.5173 149.762 27.0373 150.637 26.632C151.533 26.2267 152.471 25.832 153.453 25.448V24.136C153.453 23.3893 153.41 22.7707 153.325 22.28C153.239 21.7893 153.058 21.4267 152.781 21.192C152.525 20.936 152.13 20.808 151.597 20.808C151.127 20.808 150.743 20.9147 150.445 21.128C150.167 21.3413 149.965 21.6507 149.837 22.056C149.709 22.44 149.645 22.8987 149.645 23.432V24.36L146.253 24.232C146.295 22.184 146.765 20.68 147.661 19.72C148.557 18.7387 149.943 18.248 151.821 18.248C153.655 18.248 154.957 18.7493 155.725 19.752C156.493 20.7547 156.877 22.2053 156.877 24.104V32.552C156.877 33.128 156.887 33.6827 156.909 34.216C156.951 34.7493 156.994 35.2507 157.037 35.72C157.101 36.168 157.154 36.5947 157.197 37H154.061C153.997 36.6587 153.911 36.232 153.805 35.72C153.719 35.1867 153.655 34.7067 153.613 34.28C153.399 35.0053 152.983 35.688 152.365 36.328C151.767 36.9467 150.935 37.256 149.869 37.256ZM151.213 34.312C151.554 34.312 151.874 34.216 152.173 34.024C152.471 33.832 152.738 33.6187 152.973 33.384C153.207 33.128 153.367 32.9253 153.453 32.776V27.528C152.919 27.8267 152.418 28.1253 151.949 28.424C151.479 28.7227 151.063 29.0427 150.701 29.384C150.359 29.704 150.082 30.0773 149.869 30.504C149.677 30.9093 149.581 31.3787 149.581 31.912C149.581 32.6587 149.719 33.2453 149.997 33.672C150.274 34.0987 150.679 34.312 151.213 34.312ZM164.844 37.256C163.884 37.256 163.105 37.0747 162.508 36.712C161.932 36.3493 161.505 35.8373 161.228 35.176C160.972 34.5147 160.844 33.736 160.844 32.84V20.776H158.892V18.504H160.844V13.096H164.268V18.504H167.244V20.776H164.268V32.616C164.268 33.3413 164.385 33.864 164.62 34.184C164.854 34.4827 165.302 34.632 165.964 34.632C166.134 34.632 166.326 34.6213 166.54 34.6C166.774 34.5787 166.998 34.5573 167.212 34.536V37.064C166.785 37.128 166.39 37.1707 166.028 37.192C165.665 37.2347 165.27 37.256 164.844 37.256ZM174.047 37.256C172.533 37.256 171.317 36.7867 170.399 35.848C169.482 34.888 168.959 33.6293 168.831 32.072L171.679 31.208C171.85 32.3813 172.138 33.2667 172.543 33.864C172.949 34.44 173.546 34.728 174.335 34.728C174.954 34.728 175.423 34.5573 175.743 34.216C176.063 33.8533 176.223 33.3733 176.223 32.776C176.223 32.2427 176.106 31.7627 175.871 31.336C175.637 30.9093 175.253 30.472 174.719 30.024L171.551 27.304C170.911 26.7493 170.367 26.1307 169.919 25.448C169.493 24.7653 169.279 23.88 169.279 22.792C169.279 21.8107 169.471 20.9893 169.855 20.328C170.261 19.6453 170.815 19.1333 171.519 18.792C172.245 18.4293 173.087 18.248 174.047 18.248C175.519 18.248 176.639 18.728 177.407 19.688C178.197 20.6267 178.645 21.768 178.751 23.112L176.447 23.976C176.362 23.336 176.234 22.7813 176.063 22.312C175.893 21.8213 175.658 21.448 175.359 21.192C175.061 20.9147 174.666 20.776 174.175 20.776C173.621 20.776 173.173 20.968 172.831 21.352C172.511 21.7147 172.351 22.152 172.351 22.664C172.351 22.984 172.415 23.304 172.543 23.624C172.693 23.9227 172.938 24.2213 173.279 24.52L176.543 27.528C176.991 27.9333 177.407 28.3707 177.791 28.84C178.197 29.3093 178.527 29.8427 178.783 30.44C179.039 31.0373 179.167 31.7307 179.167 32.52C179.167 33.5653 178.954 34.44 178.527 35.144C178.101 35.848 177.503 36.3813 176.735 36.744C175.967 37.0853 175.071 37.256 174.047 37.256Z" fill="white" />
    <path d="M6.41183 29.1913L17.7341 20.9569M18.4265 25.3562L31.5342 16.1808M19.2203 24.6262L16.428 21.1493" stroke="#00C62B" stroke-width="2" />
    <path d="M33.5436 14.782L31.6006 19.6488L28.3117 15.0792L33.5436 14.782Z" fill="#00C62B" />
</svg>